Coordinates
version=1
nRows=32
nColumns=22
inDegrees=yes

Units are S.I. units (second, meters, Newtons, ...)
If the header above contains a line with 'inDegrees', this indicates whether rotational values are in degrees (yes) or radians (no).

endheader
time	pelvis_tilt	pelvis_list	pelvis_rotation	pelvis_tx	pelvis_ty	pelvis_tz	hip_flexion_r	hip_adduction_r	hip_rotation_r	knee_angle_r	ankle_angle_r	subtalar_angle_r	hip_flexion_l	hip_adduction_l	hip_rotation_l	knee_angle_l	ankle_angle_l	subtalar_angle_l	lumbar_extension	lumbar_bending	lumbar_rotation
      1.36000000	    -10.44350051	      6.62097072	    -41.17337058	     -1.46794184	      0.88007089	     -0.36301424	     15.26699129	     -0.60738316	      5.73078440	    -10.71843126	     12.94885638	     -0.34739332	     10.79310330	     -6.62849313	     -9.33384443	    -10.56532084	     14.47294618	      6.71008351	      1.50235106	      0.32521874	     10.84082653
      1.37000000	    -10.59509503	      6.69359921	    -41.21746093	     -1.46828774	      0.87976639	     -0.36161592	     15.40932215	     -0.45921612	      5.79103409	    -10.75110426	     12.99901002	     -0.39711027	     10.70574115	     -6.76621414	     -9.51149232	    -10.21840578	     14.51105072	      7.15225924	      1.57344439	      0.39554730	     10.77420271
      1.38000000	    -10.74795359	      6.75327543	    -41.25807002	     -1.46861811	      0.87944143	     -0.36015068	     15.53888643	     -0.29780307	      5.85101863	    -10.78526964	     13.05913479	     -0.44686836	     10.63924790	     -6.92339195	     -9.67748227	     -9.93505505	     14.59403801	      7.60836962	      1.63563622	      0.48072397	     10.70208898
      1.39000000	    -10.89803186	      6.79907824	    -41.29767754	     -1.46893193	      0.87910489	     -0.35860877	     15.65238249	     -0.12431806	      5.91269121	    -10.82155455	     13.12802692	     -0.49422195	     10.59630223	     -7.09889600	     -9.82970634	     -9.72788483	     14.71424000	      8.04684853	      1.68548340	      0.57729652	     10.62737839
      1.40000000	    -11.03642967	      6.82521971	    -41.33481461	     -1.46923675	      0.87877971	     -0.35699775	     15.74670492	      0.05990568	      5.97841313	    -10.87480757	     13.20462906	     -0.53862491	     10.57933542	     -7.29215824	     -9.94823797	     -9.62022308	     14.86411056	      8.44101202	      1.70815865	      0.68380346	     10.53854021
      1.41000000	    -11.17039477	      6.86063588	    -41.36063915	     -1.46948160	      0.87843605	     -0.35530674	     15.81564506	      0.23043982	      6.03833661	    -10.88663260	     13.30542758	     -0.59597647	     10.60723443	     -7.47967609	    -10.02366344	     -9.59488045	     15.02168465	      8.85457273	      1.74162110	      0.78057899	     10.45182848
      1.42000000	    -11.27622337	      6.85725590	    -41.39641657	     -1.46971930	      0.87815203	     -0.35352123	     15.84888559	      0.41969335	      6.09595196	    -10.93535643	     13.40206200	     -0.62890919	     10.65033473	     -7.69211017	    -10.08329492	     -9.70212260	     15.21558173	      9.05468407	      1.71952145	      0.89087481	     10.36767250
      1.43000000	    -11.39921707	      6.86254919	    -41.41954614	     -1.46995516	      0.87783661	     -0.35167109	     15.87994504	      0.61524931	      6.18021163	    -10.94992641	     13.50699097	     -0.70229278	     10.78788332	     -7.92057009	    -10.07032207	     -9.94663073	     15.38507457	      9.33149376	      1.72169428	      1.00562186	     10.28953612
      1.44000000	    -11.49657268	      6.83959945	    -41.45599023	     -1.47014497	      0.87756870	     -0.34970621	     15.86573951	      0.82167332	      6.26386402	    -10.96993829	     13.61900174	     -0.76669357	     10.93899007	     -8.16272514	    -10.04441744	    -10.30564408	     15.59035801	      9.43464305	      1.68664435	      1.12986029	     10.21333379
      1.45000000	    -11.58603396	      6.80061422	    -41.49854925	     -1.47031573	      0.87731832	     -0.34766172	     15.82413895	      1.03940626	      6.35640173	    -10.98086371	     13.72473950	     -0.84053659	     11.14592268	     -8.42239777	     -9.97341353	    -10.80881479	     15.81077956	      9.44362756	      1.63543823	      1.26538103	     10.16291009
      1.46000000	    -11.68400884	      6.75955103	    -41.54199813	     -1.47046311	      0.87704591	     -0.34554161	     15.76932206	      1.26768095	      6.45687472	    -10.96718087	     13.84387577	     -0.95726718	     11.43523405	     -8.69843593	     -9.85703192	    -11.45978474	     16.04266114	      9.36186542	      1.59551604	      1.41263230	     10.13349766
      1.47000000	    -11.74476770	      6.67652026	    -41.61538739	     -1.47057202	      0.87683171	     -0.34331123	     15.64351327	      1.51031307	      6.56819390	    -10.94308872	     13.95984365	     -1.02812965	     11.72897613	     -8.99437035	     -9.73444311	    -12.24925357	     16.32070413	      9.22333603	      1.49412072	      1.57491921	     10.15395553
      1.48000000	    -11.86707148	      6.61545687	    -41.66319626	     -1.47070197	      0.87650112	     -0.34108362	     15.57465708	      1.77834716	      6.70472825	    -10.91094865	     14.05801530	     -1.21349589	     12.20027432	     -9.32172021	     -9.51825505	    -13.23000809	     16.57374918	      8.93270936	      1.46213361	      1.77034096	     10.14080310
      1.49000000	    -11.94679469	      6.49543582	    -41.74749300	     -1.47079128	      0.87622558	     -0.33875775	     15.42422501	      2.07080009	      6.85211933	    -10.87884728	     14.15271341	     -1.34208911	     12.67163341	     -9.68096690	     -9.30352710	    -14.37192937	     16.89013366	      8.66000901	      1.34732842	      1.99323475	     10.18727285
      1.50000000	    -12.04588546	      6.38352960	    -41.81762289	     -1.47081738	      0.87585939	     -0.33643144	     15.27401245	      2.36249692	      6.97872521	    -10.81759875	     14.28455308	     -1.53467250	     13.27936081	    -10.05119022	     -9.04047983	    -15.71841041	     17.20599674	      8.30770044	      1.25979600	      2.23432350	     10.24472251
      1.51000000	    -12.12558714	      6.22446924	    -41.90418548	     -1.47079939	      0.87548509	     -0.33407084	     15.08272319	      2.68107259	      7.11157123	    -10.78317497	     14.42357022	     -1.73195515	     13.93283776	    -10.45442873	     -8.75036485	    -17.24288505	     17.55632683	      7.96675637	      1.11490339	      2.51059089	     10.33063149
      1.52000000	    -12.20141397	      6.01215869	    -41.99076767	     -1.47068534	      0.87510212	     -0.33167923	     14.81832956	      3.03219967	      7.24438430	    -10.70212775	     14.54133353	     -1.88162551	     14.64641346	    -10.90477762	     -8.44082840	    -18.94894856	     17.86958735	      7.70083380	      0.92786906	      2.83997043	     10.43546825
      1.53000000	    -12.25662829	      5.76270115	    -42.07355832	     -1.47047442	      0.87470014	     -0.32930123	     14.51410418	      3.39199505	      7.36313123	    -10.64056306	     14.68627737	     -2.05760821	     15.41381625	    -11.37076773	     -8.10279036	    -20.82383515	     18.16363781	      7.45785135	      0.69148307	      3.19555769	     10.55265994
      1.54000000	    -12.28285816	      5.47167119	    -42.14723255	     -1.47015345	      0.87430604	     -0.32692452	     14.15604793	      3.75782518	      7.46828864	    -10.59435851	     14.87003641	     -2.27021387	     16.22056000	    -11.84912539	     -7.73419210	    -22.85682190	     18.39897291	      7.25532083	      0.39846022	      3.56866789	     10.67952113
      1.55000000	    -12.26555132	      5.13138329	    -42.20993041	     -1.46969122	      0.87397979	     -0.32455710	     13.70583780	      4.11980768	      7.55905749	    -10.51937908	     15.03565856	     -2.45424003	     17.04434690	    -12.33441011	     -7.35719110	    -25.03905143	     18.52563399	      7.12938392	      0.03046149	      3.95429118	     10.81569517
      1.56000000	    -12.19755159	      4.75509052	    -42.25768260	     -1.46909735	      0.87373826	     -0.32219019	     13.16760285	      4.46306409	      7.62931552	    -10.41583251	     15.19493950	     -2.60492944	     17.88603826	    -12.81028524	     -6.96712632	    -27.36568389	     18.52931038	      7.05694022	     -0.40764053	      4.32739775	     10.96165382
      1.57000000	    -12.08550067	      4.36051696	    -42.28634207	     -1.46840147	      0.87357871	     -0.31986994	     12.57958051	      4.78045999	      7.68150062	    -10.31720594	     15.37456241	     -2.77659380	     18.76550921	    -13.25937142	     -6.54088484	    -29.83024274	     18.38023965	      7.01669059	     -0.90099254	      4.67854963	     11.10550760
      1.58000000	    -11.92455655	      3.95352871	    -42.29908818	     -1.46760747	      0.87352520	     -0.31756122	     11.92787198	      5.06441751	      7.71238558	    -10.19550106	     15.55301520	     -2.92467991	     19.67323526	    -13.67368521	     -6.09069552	    -32.41471657	     18.07839985	      6.98412935	     -1.44579017	      4.98770280	     11.26665580
      1.59000000	    -11.71815209	      3.54569806	    -42.30433135	     -1.46673706	      0.87358246	     -0.31527256	     11.23585604	      5.31158702	      7.72619286	    -10.06888155	     15.72133491	     -3.03504468	     20.60738176	    -14.04235710	     -5.62361894	    -35.08838537	     17.63264362	      6.93256715	     -2.03435321	      5.25031063	     11.42866836
      1.60000000	    -11.50001422	      3.18096380	    -42.27939782	     -1.46575376	      0.87368207	     -0.31302173	     10.53862634	      5.50396384	      7.71277785	     -9.89572843	     15.89348323	     -3.16231276	     21.62476304	    -14.33462398	     -5.10636559	    -37.81965538	     17.04710867	      6.83721067	     -2.59254003	      5.45277280	     11.59143693
      1.61000000	    -11.26648338	      2.86112173	    -42.24719332	     -1.46466711	      0.87383245	     -0.31076468	      9.84890325	      5.64506050	      7.68847387	     -9.70659893	     16.06423655	     -3.27712428	     22.69029791	    -14.54812220	     -4.57418040	    -40.54341346	     16.38216382	      6.67250290	     -3.12122048	      5.58836111	     11.77066616
      1.62000000	    -11.04299239	      2.61319597	    -42.20716876	     -1.46347064	      0.87398506	     -0.30852009	      9.21374925	      5.73125300	      7.67327627	     -9.51945859	     16.24369051	     -3.40341347	     23.82346441	    -14.66552763	     -4.01966335	    -43.19636858	     15.70317143	      6.38337463	     -3.57718080	      5.65661314	     11.96318430
      1.63000000	    -10.79715023	      2.41319294	    -42.18925078	     -1.46209798	      0.87422830	     -0.30619857	      8.56819106	      5.75707685	      7.63909002	     -9.29842036	     16.36225417	     -3.45475786	     24.93246240	    -14.70729128	     -3.54109334	    -45.69892613	     15.03191180	      6.11540937	     -3.99778903	      5.65548577	     12.20689073
      1.64000000	    -10.58862245	      2.33170017	    -42.18507753	     -1.46063039	      0.87438569	     -0.30387414	      8.05770486	      5.71543882	      7.65179252	     -9.13194327	     16.54897895	     -3.54183316	     26.11745895	    -14.64464802	     -3.10578265	    -48.01597589	     14.47503647	      5.62594949	     -4.28543758	      5.57140989	     12.44947890
      1.65000000	    -10.37649570	      2.29968925	    -42.20237627	     -1.45895548	      0.87460340	     -0.30146847	      7.53913956	      5.62173009	      7.67940341	     -8.90912129	     16.67606541	     -3.56451761	     27.25667285	    -14.52248457	     -2.76335032	    -50.07302576	     14.03694960	      5.28252158	     -4.51760878	      5.43651294	     12.72397219
      1.66000000	    -10.17257539	      2.35941070	    -42.26075705	     -1.45717142	      0.87481080	     -0.29902232	      7.11396274	      5.46136094	      7.75133306	     -8.73926227	     16.81245359	     -3.58473955	     28.38067815	    -14.32299258	     -2.52665575	    -51.83471437	     13.69954095	      4.89427323	     -4.66533629	      5.22171348	     13.04821058
      1.67000000	     -9.96398698	      2.48711270	    -42.36020382	     -1.45525723	      0.87503957	     -0.29651018	      6.73368576	      5.24147948	      7.86793430	     -8.58082710	     16.94204442	     -3.59457958	     29.44848754	    -14.06974565	     -2.41057779	    -53.26625167	     13.46116308	      4.56203116	     -4.75602559	      4.93794147	     13.40733929
